<svg xmlns="http://www.w3.org/2000/svg" viewBox="0 0 48 32" aria-hidden="true"><g fill="none"><path fill="#0073A5" d="M44 0H4a4 4 0 0 0-4 4v24a4 4 0 0 0 4 4h40a4 4 0 0 0 4-4V4a4 4 0 0 0-4-4z"></path><path fill="#FFF" d="M38.213 4h-21.04a2.667 2.667 0 0 0-2.666 2.667V13.8l1.333-.533v-2.494a5.733 5.733 0 0 0 5.8-5.44h12.093a5.733 5.733 0 0 0 5.76 5.44v4a5.72 5.72 0 0 0-5.76 5.334H17.867c-.32.144-.627.314-.92.506-.254.174-.267.307-.24.467.02.098.077.184.16.24a2 2 0 0 0 .786.12h20.56a2.667 2.667 0 0 0 2.667-2.667V6.667A2.667 2.667 0 0 0 38.213 4zM15.88 9.44V6.667c0-.737.597-1.334 1.333-1.334h3.12A4.387 4.387 0 0 1 15.88 9.44zm23.627 9.467c0 .736-.597 1.333-1.334 1.333h-3.08a4.387 4.387 0 0 1 4.414-4v2.667zm0-10.52V9.44a4.413 4.413 0 0 1-4.414-4.107h3.12c.737 0 1.334.597 1.334 1.334l-.04 1.72z"></path><path fill="#FFF" d="M15.013 21.773A1.827 1.827 0 0 1 16 19.467l5.64-2.8c1.053-.72 1.64-1.827.467-3-1.174-1.174-3.827.133-3.827.133L7.173 18.067c-.586.226-1.213.36-1.266 1.133v6.667a.68.68 0 0 0 .586.666l12.614 1.92a2.853 2.853 0 0 0 2.12-.32l8.906-5h-12.8s-1.92.014-2.32-1.36z"></path><circle cx="27.693" cy="12.76" r="2.16" fill="#FFF"></circle></g></svg>